<?xml version="1.0" encoding="utf-8"?>
<!-- Generator: Adobe Illustrator 23.0.4, SVG Export Plug-In . SVG Version: 6.00 Build 0)  -->
<svg version="1.1" id="Layer_1" xmlns="http://www.w3.org/2000/svg" xmlns:xlink="http://www.w3.org/1999/xlink" x="0px" y="0px"
	 viewBox="0 0 132 132" style="enable-background:new 0 0 132 132;" xml:space="preserve">
<style type="text/css">
	.st0{fill:url(#SVGID_1_);}
</style>
<linearGradient id="SVGID_1_" gradientUnits="userSpaceOnUse" x1="112.6577" y1="112.6577" x2="19.3423" y2="19.3423">
	<stop  offset="0" style="stop-color:#1E9A4B"/>
	<stop  offset="1" style="stop-color:#20B6EE"/>
</linearGradient>
<path class="st0" d="M66,92.7c-1.8,0-3.1,1.5-3.1,3.1v11.5c-5.5,1.3-9.4,6.3-9.4,12.1c0,6.9,5.6,12.6,12.6,12.6s12.6-5.6,12.6-12.6
	c0-5.9-4-10.8-9.4-12.1V95.8C69.1,94.1,67.8,92.7,66,92.7z M72.3,119.4c0,3.5-2.8,6.3-6.3,6.3s-6.3-2.8-6.3-6.3
	c0-3.5,2.8-6.3,6.3-6.3l0,0l0,0C69.5,113.1,72.3,115.9,72.3,119.4z M66,39.3c1.8,0,3.1-1.5,3.1-3.1V24.7c5.5-1.3,9.4-6.3,9.4-12.1
	C78.6,5.6,72.9,0,66,0S53.4,5.6,53.4,12.6c0,5.9,4,10.8,9.4,12.1v11.5C62.9,37.9,64.2,39.3,66,39.3z M59.7,12.6
	c0-3.5,2.8-6.3,6.3-6.3c3.5,0,6.3,2.8,6.3,6.3s-2.8,6.3-6.3,6.3S59.7,16.1,59.7,12.6z M119.4,53.4c-5.9,0-10.8,4-12.1,9.4H95.8
	c-1.8,0-3.1,1.5-3.1,3.1c0,1.6,1.5,3.1,3.1,3.1h11.5c1.3,5.5,6.3,9.4,12.1,9.4c6.9,0,12.6-5.6,12.6-12.6S126.4,53.4,119.4,53.4z
	 M119.4,72.3c-3.5,0-6.3-2.8-6.3-6.3l0,0l0,0c0-3.5,2.8-6.3,6.3-6.3c3.5,0,6.3,2.8,6.3,6.3C125.8,69.5,123,72.3,119.4,72.3z M0,66
	c0,6.9,5.6,12.6,12.6,12.6c5.9,0,10.8-4,12.1-9.4h11.5c1.8,0,3.1-1.5,3.1-3.1c0-1.6-1.5-3.1-3.1-3.1H24.7c-1.3-5.5-6.3-9.4-12.1-9.4
	C5.6,53.4,0,59.1,0,66z M18.9,66L18.9,66L18.9,66c0,3.5-2.8,6.3-6.3,6.3S6.2,69.5,6.2,66c0-3.5,2.8-6.3,6.3-6.3S18.9,62.5,18.9,66z
	 M94.9,112.7c2.4,2.4,5.5,3.7,8.9,3.7c3.4,0,6.5-1.3,8.9-3.7c4.9-4.9,4.9-12.8,0-17.9c-2.4-2.4-5.5-3.7-8.9-3.7
	c-2.2,0-4.4,0.6-6.3,1.8l-8.1-8.1c-1.2-1.2-3.2-1.2-4.4,0s-1.2,3.2,0,4.4l8.1,8.1C90.1,102.2,90.8,108.5,94.9,112.7z M108.2,99.4
	c2.5,2.5,2.5,6.5,0,8.9c-1.2,1.2-2.8,1.9-4.4,1.9s-3.2-0.6-4.4-1.9c-2.5-2.5-2.5-6.5,0-8.9l0,0l0,0c1.2-1.2,2.8-1.8,4.4-1.8
	C105.4,97.4,107,98.2,108.2,99.4z M37.1,19.3c-2.4-2.4-5.5-3.7-8.9-3.7s-6.5,1.3-8.9,3.7c-4.9,4.9-4.9,12.8,0,17.9
	c2.4,2.4,5.5,3.7,8.9,3.7c2.2,0,4.4-0.6,6.3-1.8l8.1,8.1c0.6,0.6,1.5,0.9,2.2,0.9c0.7,0,1.6-0.3,2.2-0.9c1.2-1.2,1.2-3.2,0-4.4
	L39,34.7C41.9,29.8,41.2,23.5,37.1,19.3z M23.8,32.6c-2.5-2.5-2.5-6.5,0-8.9c1.2-1.2,2.8-1.9,4.4-1.9c1.6,0,3.2,0.6,4.4,1.9
	c2.5,2.5,2.5,6.5,0,8.9l0,0l0,0c-1.2,1.2-2.8,1.9-4.4,1.9C26.6,34.6,25,33.8,23.8,32.6z M84.9,47.1c0.6,0.6,1.5,0.9,2.2,0.9
	s1.6-0.3,2.2-0.9l8.1-8.1c1.9,1.2,4.1,1.8,6.3,1.8c3.4,0,6.5-1.3,8.9-3.7c4.9-4.9,4.9-12.8,0-17.9c-2.4-2.4-5.5-3.7-8.9-3.7
	c-3.4,0-6.5,1.3-8.9,3.7c-4.1,4.1-4.7,10.5-1.9,15.4l-8.1,8.1C83.7,43.9,83.7,45.9,84.9,47.1z M99.4,23.8c1.2-1.2,2.8-1.9,4.4-1.9
	s3.2,0.6,4.4,1.9c2.5,2.5,2.5,6.5,0,8.9c-1.2,1.2-2.8,1.9-4.4,1.9s-3.2-0.6-4.4-1.9l0,0l0,0C96.9,30.3,96.9,26.1,99.4,23.8z
	 M47.1,84.9c-1.2-1.2-3.2-1.2-4.4,0L34.6,93c-1.9-1.2-4.1-1.8-6.3-1.8c-3.4,0-6.5,1.3-8.9,3.7c-4.9,4.9-4.9,12.8,0,17.9
	c2.4,2.4,5.5,3.7,8.9,3.7s6.5-1.3,8.9-3.7c4.1-4.1,4.7-10.5,1.9-15.4l8.1-8.1C48.3,88.1,48.3,86.1,47.1,84.9z M32.6,108.2
	c-1.2,1.2-2.8,1.9-4.4,1.9c-1.6,0-3.2-0.6-4.4-1.9c-2.5-2.5-2.5-6.5,0-8.9c1.2-1.2,2.8-1.9,4.4-1.9c1.6,0,3.2,0.6,4.4,1.9l0,0l0,0
	C35.1,101.7,35.1,105.9,32.6,108.2z M45.3,66c0,11.4,9.3,20.7,20.7,20.7S86.7,77.4,86.7,66S77.4,45.3,66,45.3S45.3,54.6,45.3,66z
	 M66,51.5c8,0,14.5,6.5,14.5,14.5S74,80.5,66,80.5S51.5,74,51.5,66S58,51.5,66,51.5z"/>
</svg>
