<?xml version="1.0" encoding="utf-8"?>
<!-- Generator: Adobe Illustrator 23.0.4, SVG Export Plug-In . SVG Version: 6.00 Build 0)  -->
<svg version="1.1" id="Layer_1" xmlns="http://www.w3.org/2000/svg" xmlns:xlink="http://www.w3.org/1999/xlink" x="0px" y="0px"
	 viewBox="0 0 132 132" style="enable-background:new 0 0 132 132;" xml:space="preserve">
<style type="text/css">
	.st0{fill:url(#SVGID_1_);}
</style>
<linearGradient id="SVGID_1_" gradientUnits="userSpaceOnUse" x1="112.7162" y1="141.8836" x2="19.2835" y2="48.4509">
	<stop  offset="0" style="stop-color:#1E9A4B"/>
	<stop  offset="1" style="stop-color:#20B6EE"/>
</linearGradient>
<path class="st0" d="M65,7.6h2.1c6.4,0,11.6,5.2,11.6,11.6v9.6c0,1.8-0.7,3.7-2,5v6.4c2.5,1.4,7.8,4.4,12.7,8.4
	c1.8,1.4,2.8,3.5,2.8,5.9V61c0,1.7-1.4,3-3,3s-3-1.4-3-3v-6.5c0-0.6-0.3-1-0.6-1.3c-5.7-4.7-11.9-7.8-13-8.4c-1.1-0.6-2-1.8-2-3.1
	v-9.2c0-1,0.6-2,1.3-2.5c0.4-0.3,0.6-0.7,0.6-1.1v-9.6c0-3.1-2.5-5.7-5.7-5.7h-2.1c-3.1,0-5.7,2.5-5.7,5.7v9.6
	c0,0.4,0.3,0.8,0.6,1.1c0.8,0.6,1.3,1.6,1.3,2.5v9.2c0,1.3-0.7,2.5-2,3.1c-1.1,0.6-7.4,3.7-13,8.4c-0.4,0.3-0.6,0.7-0.6,1.3V61
	c0,1.7-1.4,3-3,3c-1.7,0-3-1.4-3-3v-6.5c0-2.3,1-4.4,2.8-5.9c5-4.1,10.2-7.1,12.7-8.4v-6.4c-1.3-1.3-2-3.1-2-5v-9.6
	C53.4,12.7,58.5,7.6,65,7.6z M129,124.4c1.7,0,3-1.4,3-3v-6.5c0-2.3-1-4.4-2.8-5.9c-5-4.1-10.2-7.1-12.7-8.4v-6.4c1.3-1.3,2-3.1,2-5
	v-9.6c0-6.4-5.2-11.6-11.6-11.6h-2.1c-6.4,0-11.6,5.2-11.6,11.6v9.6c0,1.8,0.7,3.7,2,5v6.4c-2.5,1.4-7.8,4.4-12.7,8.4
	c-1.8,1.4-2.8,3.5-2.8,5.9v6.5c0,1.7,1.4,3,3,3s3-1.4,3-3v-6.5c0-0.4,0.3-1,0.6-1.3c5.7-4.7,11.9-7.8,13-8.4c1.1-0.6,2-1.7,2-3.1
	v-9.2c0-1-0.6-2-1.3-2.5c-0.4-0.3-0.6-0.7-0.6-1.1v-9.6c0-3.1,2.5-5.7,5.7-5.7h2.1c3.1,0,5.7,2.5,5.7,5.7v9.6c0,0.4-0.3,0.8-0.6,1.1
	c-0.8,0.6-1.3,1.6-1.3,2.5v9.2c0,1.3,0.7,2.5,2,3.1c1.1,0.6,7.4,3.7,13,8.4c0.4,0.3,0.6,0.7,0.6,1.3v6.5
	C126.1,123.1,127.3,124.4,129,124.4z M46.6,114.9v6.5c0,1.7,1.4,3,3,3s3-1.4,3-3v-6.5c0-2.3-1-4.4-2.8-5.9c-5-4.1-10.2-7.1-12.7-8.4
	v-6.4c1.3-1.3,2-3.1,2-5v-9.6c0-6.4-5.2-11.6-11.6-11.6h-2.1c-6.4,0-11.6,5.2-11.6,11.6v9.6c0,1.8,0.7,3.7,2,5v6.4
	c-2.5,1.4-7.8,4.4-12.7,8.4C1,110.3,0,112.5,0,114.9v6.5c0,1.7,1.4,3,3,3s3-1.4,3-3v-6.5c0-0.4,0.3-1,0.6-1.3
	c5.7-4.7,11.9-7.8,13-8.4c1.1-0.6,2-1.7,2-3.1v-9.2c0-1-0.6-2-1.3-2.5c-0.4-0.3-0.6-0.7-0.6-1.1v-9.6c0-3.1,2.5-5.7,5.7-5.7h2.1
	c3.1,0,5.7,2.5,5.7,5.7v9.6c0,0.4-0.3,0.8-0.6,1.1c-0.8,0.6-1.3,1.6-1.3,2.5v9.2c0,1.3,0.7,2.5,2,3.1c1.1,0.6,7.4,3.7,13,8.4
	C46.3,113.9,46.6,114.3,46.6,114.9z M82.4,94c1,0,2-0.6,2.5-1.6c0.8-1.4,0.3-3.3-1.1-4.1l-14.7-8.5v-17c0-1.7-1.4-3-3-3
	c-1.7,0-3,1.4-3,3v17l-14.7,8.5c-1.4,0.8-2,2.7-1.1,4.1c0.6,1,1.6,1.6,2.5,1.6c0.6,0,1-0.1,1.6-0.4l14.7-8.5l14.7,8.5
	C81.4,93.9,81.9,94,82.4,94z"/>
</svg>
